<?xml version="1.0" standalone="yes"?>
<svg width="239" height="198">
<path style="fill:#000000; stroke:none;" d="M0 0L0 198L239 198L239 0L0 0z"/>
<path style="fill:#aaaaaa; stroke:none;" d="M100 4L101 5L100 4z"/>
<path style="fill:#f9f3ee; stroke:none;" d="M103.667 9.33333L104.333 9.66667L103.667 9.33333z"/>
<path style="fill:#f2774c; stroke:none;" d="M74 15L74 16C95.9317 13.0467 112.07 12.7758 134 16C119.118 4.91217 90.1498 9.83595 74 15z"/>
<path style="fill:#f1541b; stroke:none;" d="M21 73L38 73C40.6043 67.9221 44.5954 67.0602 50 67L55 48L57 48C59.5397 60.8532 69.5094 70.8395 82 67L78 64L78 61C88.1299 57.2755 78.0292 47.3549 83.5293 41.4344C87.8567 36.7763 92.9508 43.0405 98 41L98 47C102.478 45.6036 109.383 40.5897 110.681 35.8302C111.308 33.5341 109.673 28.539 111.754 26.9213C114.203 25.0176 115.597 29.6226 116 31C119.707 30.4994 121.785 29.6427 123 26L127 27C132.473 17.6264 145.784 25.6035 154 27C119.769 -1.7926 63.2566 10.6095 36.804 42.9992C29.0442 52.5007 22.733 60.3888 21 73z"/>
<path style="fill:#f18866; stroke:none;" d="M146 21L154 26L154 25L146 21z"/>
<path style="fill:#f59471; stroke:none;" d="M128 25C142.606 21.5242 153.467 30.7297 166 36C159.546 26.9143 150.33 25.3934 140 23.2106C135.64 22.2895 130.885 20.918 128 25z"/>
<path style="fill:#f3784c; stroke:none;" d="M49 30L56 25L49 30z"/>
<path style="fill:#f2865e; stroke:none;" d="M110 26L110 27L114 26L110 26z"/>
<path style="fill:#f47f55; stroke:none;" d="M127 25L123 26L123 27L128 30L127 25z"/>
<path style="fill:#f47e54; stroke:none;" d="M114 26L115 32L122 29L116 31L114 26z"/>
<path style="fill:#f07b50; stroke:none;" d="M31 50L45 34C38.7154 36.9389 33.4847 43.5756 31 50z"/>
<path style="fill:#f48762; stroke:none;" d="M109 38L105 43L109 38z"/>
<path style="fill:#f38a62; stroke:none;" d="M85 39L85 40L91 40L85 39z"/>
<path style="fill:#f38058; stroke:none;" d="M83 40L81 47L82 47L85 40L83 40z"/>
<path style="fill:#f38c67; stroke:none;" d="M97 41L95 45L100 48L100 47L97 41z"/>
<path style="fill:#f28660; stroke:none;" d="M101 46L105 43L101 46z"/>
<path style="fill:#808080; stroke:none;" d="M201 46L202 47L201 46z"/>
<path style="fill:#ee8855; stroke:none;" d="M82 47L83 57L84 57L82 47z"/>
<path style="fill:#f2865e; stroke:none;" d="M55 48L57 54L58 54L55 48z"/>
<path style="fill:#999999; stroke:none;" d="M199 48L200 49L199 48z"/>
<path style="fill:#ffffff; stroke:none;" d="M16 53L17 54L16 53z"/>
<path style="fill:#f5906e; stroke:none;" d="M105 53C105 57.0856 103.066 67.38 108 68C105.596 63.6765 104.917 58.0692 108 54L105 53z"/>
<path style="fill:#f6926d; stroke:none;" d="M115 58L120 54L120 67L119 67L119 58L112 63L112 64L116 61L117 61L117 68L137 68L137 63L136 63L136 67L134 67L134 54L141 54L141 53L122 53L122 66L121 66L121 53L115 58z"/>
<path style="fill:#f3774b; stroke:none;" d="M144 57C141.668 53.4024 137.987 54.0031 134 54L134 67L136 67L136 63C139.878 62.8746 142.072 62.4983 144 59L145 59L147 67L155 66L155 65C143.784 63.2252 153.746 51.3752 157 63C162.275 51.908 150.361 52.9989 144 57z"/>
<path style="fill:#f58e6c; stroke:none;" d="M160 56L161 56L162 54L166 62C165.407 59.5246 161.569 48.7152 160 56z"/>
<path style="fill:#f68d6a; stroke:none;" d="M166 60L167 60L168 54L170 56C171.57 51.8531 166.174 55.0969 166 60z"/>
<path style="fill:#f28f6c; stroke:none;" d="M175 53L175 54L175 62L176 62L177 57L178 57C178 59.8781 177.088 64.8625 179.027 67.2546C182.01 70.9346 187.811 68.6663 189 65L181 62L180 62L180 66L188 66L188 67L179 67L179 54L188 54L188 55C183.566 55.0526 180.802 55.1945 180 60L188 62L189 62C188.146 58.0129 184.511 59 181 59L181 57C184.935 56.9534 187.657 57.046 189 53L175 53z"/>
<path style="fill:#008080; stroke:none;" d="M189.333 53.6667L189.667 54.3333L189.333 53.6667z"/>
<path style="fill:#f4794d; stroke:none;" d="M190 53L190 69L193 63L201 69L199 63C204.226 54.7823 197.103 53.0055 190 53z"/>
<path style="fill:#f36c3b; stroke:none;" d="M106 54L106 67L108 67L108 59L109 59C112.004 64.4034 115.205 60.7653 119 58L119 67L120 67L120 54C113.214 57.6551 112.855 56.0414 106 54z"/>
<path style="fill:#f26736; stroke:none;" d="M123 54L123 67L132 67L132 66L124 66L124 55L131 55L123 54z"/>
<path style="fill:#f16b3a; stroke:none;" d="M161 54L164 67L170 61C170.458 74.939 175.881 58.894 177 54L173 61L172 61L168 54L164 62L161 54z"/>
<path style="fill:#ed7045; stroke:none;" d="M179 54L179 67L188 67L188 66L180 66L180 62L188 62L188 60L180 60C181.303 55.708 183.735 55.1389 188 55L179 54z"/>
<path style="fill:#f28057; stroke:none;" d="M50 55L50 66L51 66C52.537 61.9151 52.3297 58.731 50 55z"/>
<path style="fill:#ffff00; stroke:none;" d="M121 55L122 56L121 55z"/>
<path style="fill:#f78c6b; stroke:none;" d="M136 55L136 61L141 61L141 60L137 60L137 57L142 58L136 55z"/>
<path style="fill:#000000; stroke:none;" d="M121 56L121 66L122 66L121 56M132 56L125 57L125 59C127.572 58.9983 133.458 59.8687 132 56M152.09 57.0062C146.986 57.0868 148.051 65.0874 152.985 64.534C158.007 63.9707 156.797 56.9318 152.09 57.0062z"/>
<path style="fill:#fa9570; stroke:none;" d="M192 56L192 60L199 60C197.777 56.3133 195.692 56.1204 192 56z"/>
<path style="fill:#f5906c; stroke:none;" d="M87 63L91 57L87 63z"/>
<path style="fill:#000000; stroke:none;" d="M137 57L137 60L142 59L137 57z"/>
<path style="fill:#f8d8d1; stroke:none;" d="M177 57L177 60L178 60L177 57z"/>
<path style="fill:#f4d5ca; stroke:none;" d="M181.333 57.6667L181.667 58.3333L181.333 57.6667z"/>
<path style="fill:#000000; stroke:none;" d="M193 57L193 59L198 59L198 57L193 57z"/>
<path style="fill:#ffffff; stroke:none;" d="M10 58L11 59L10 58z"/>
<path style="fill:#f15e2a; stroke:none;" d="M158 58C157.194 63.276 154.237 65.6116 149 66C153.498 72.8505 160.442 63.891 158 58z"/>
<path style="fill:#f58e69; stroke:none;" d="M159 58L159 64L160 64L159 58z"/>
<path style="fill:#f48e63; stroke:none;" d="M162 60L166 69L168 61L167 61L164 67L162 60z"/>
<path style="fill:#ffffff; stroke:none;" d="M12 61L13 62L12 61z"/>
<path style="fill:#f38157; stroke:none;" d="M23 62L22 66L23 66L23 62z"/>
<path style="fill:#000000; stroke:none;" d="M125 62L125 65L133 66L133 62L125 62z"/>
<path style="fill:#f17f5b; stroke:none;" d="M78 63L78 64L84 66L78 63z"/>
<path style="fill:#b3b3b3; stroke:none;" d="M7 66L8 67L7 66z"/>
<path style="fill:#404040; stroke:none;" d="M11.3333 66.6667L11.6667 67.3333L11.3333 66.6667z"/>
<path style="fill:#f18063; stroke:none;" d="M65 66L66 70L68 68L69 68L72 70L65 66z"/>
<path style="fill:#f48d69; stroke:none;" d="M21 67L19 74C25.9538 76.0554 37.7383 77.383 40 69L39 69C34.8949 75.5865 27.9444 74 21 74L21 67z"/>
<path style="fill:#ff8080; stroke:none;" d="M79.6667 67.3333L80.3333 67.6667L79.6667 67.3333z"/>
<path style="fill:#376d6d; stroke:none;" d="M174 67L176 70L174 67z"/>
<path style="fill:#aaaaaa; stroke:none;" d="M10 68L11 69L10 68z"/>
<path style="fill:#ff8055; stroke:none;" d="M76 70L79 68L76 70z"/>
<path style="fill:#ffff00; stroke:none;" d="M184 68L185 69L184 68z"/>
<path style="fill:#aaaaaa; stroke:none;" d="M8 69L9 70L8 69z"/>
<path style="fill:#f37e54; stroke:none;" d="M72 70L72 71L76 71L72 70z"/>
<path style="fill:#f26d3c; stroke:none;" d="M21 73L21 74L37 74L21 73z"/>
<path style="fill:#ffffff; stroke:none;" d="M167 74L167 76L170 76L170 74L167 74M160 75L161 76L160 75M150 78L151 79L150 78z"/>
<path style="fill:#7ba2e6; stroke:none;" d="M33 79L33 83L34 83L34 80L41 83L42 83L42 79L33 79z"/>
<path style="fill:#709be9; stroke:none;" d="M74 82L75 82L83 80C79.945 78.2399 74.8609 77.9827 74 82z"/>
<path style="fill:#7ba3e9; stroke:none;" d="M93 79L93 80L116 81C110.559 76.8776 99.6473 79 93 79z"/>
<path style="fill:#7ca1e9; stroke:none;" d="M124 81L132 82C133.644 77.6391 125.751 78.6013 124 81z"/>
<path style="fill:#749ee7; stroke:none;" d="M149 79L149 101L150 101L150 80L172 80L149 79z"/>
<path style="fill:#7ea5e8; stroke:none;" d="M174 79L174 85L175 85L175 80L195 80L195 85L196 85L196 79L174 79z"/>
<path style="fill:#6f9ae8; stroke:none;" d="M198 79L199 85C195.284 85.7962 196 88.6373 196 92L205 92L205 102L206 102L206 90L197 90L197 86L201 86L199 80C204.084 80.3876 205.68 85.4355 210.064 85.7932C216.058 86.2822 216.11 78.2713 223 82C221.859 72.9185 212.448 84.6957 210.093 84.3056C205.487 83.5426 204.325 79.0043 198 79z"/>
<path style="fill:#0045d3; stroke:none;" d="M34 80L34 84L13 84L13 114L34 114L34 120L41 120L41 114C46.0885 114 56.3923 115.917 60.3966 112.142C65.0094 107.793 62 90.0927 62 84C55.5782 84 44.5356 86.4117 41 80L34 80z"/>
<path style="fill:#0046d2; stroke:none;" d="M67 87L70 87C70 90.3232 69.0186 95.8118 71.6034 98.3966C76.2243 103.017 88.6779 100.542 91 95L77 95L77 87L90 87L90 83L83 83L83 80C77.3336 80.0194 68.1047 80.3807 67 87z"/>
<path style="fill:#286adc; stroke:none;" d="M83 80C83.7962 83.7158 86.6373 83 90 83L90 87L91 87L91 82L83 80z"/>
<path style="fill:#2568db; stroke:none;" d="M92 80L93 96L94 96L92 80z"/>
<path style="fill:#0046d3; stroke:none;" d="M94 80L92 100C96.6554 99.9835 100.128 100.225 101 95L110 95L110 97L106 97L106 100L116 100L117 81L94 80z"/>
<path style="fill:#0044d3; stroke:none;" d="M123 87L132 87L132 90L122 90L122 95L129 95L129 96L124 100L146 100L144 95C147.054 94.3456 146.936 92.9934 147 90L140 90L140 87L146 87L146 82C137.816 82 124.723 76.2802 123 87z"/>
<path style="fill:#55551c; stroke:none;" d="M143.667 80.3333L144.333 80.6667L143.667 80.3333z"/>
<path style="fill:#0044d2; stroke:none;" d="M150 80L150 100C155.035 100 167.726 102.283 170.972 97.5664C173.713 93.5841 172 84.6746 172 80L150 80z"/>
<path style="fill:#7ea6ea; stroke:none;" d="M172 80L172 96L173 96L172 80z"/>
<path style="fill:#0043d2; stroke:none;" d="M175 80L175 117L188 116L188 120L193 120L195 80L175 80z"/>
<path style="fill:#0044d2; stroke:none;" d="M199 80L201 86L197 86L197 90L206 90L206 103L197 103L197 107L204 107L199 120L206 120C209.247 109.74 213.729 107 224 107L224 103L213 103L213 90L224 90L224 86L221 86L222 80L210.064 85.534L199 80z"/>
<path style="fill:#7a9fe8; stroke:none;" d="M123 81L123 88L121 96L129 96L129 95L122 95L122 90L132 90L132 87L123 87L123 81z"/>
<path style="fill:#7799dd; stroke:none;" d="M134 81L134 82L146 82L134 81z"/>
<path style="fill:#6b9ae8; stroke:none;" d="M66 82L68 88L68 82L66 82z"/>
<path style="fill:#5f92e7; stroke:none;" d="M91 82L91 87L77 87L77 88C82.0298 88.0139 94.6971 91.0596 91 82z"/>
<path style="fill:#77a1e9; stroke:none;" d="M117 82L116 99L117 99L117 82z"/>
<path style="fill:#6d98e6; stroke:none;" d="M146 82L146 87L140 87L140 88C145.017 87.9405 147.578 87.4107 148 82L146 82z"/>
<path style="fill:#75a0e9; stroke:none;" d="M221.333 82.6667L221.667 83.3333L221.333 82.6667z"/>
<path style="fill:#7ca3e9; stroke:none;" d="M11 83L11 114C16.2736 109.392 13 89.9157 13 83L11 83z"/>
<path style="fill:#467fe2; stroke:none;" d="M13 83L13 84L34 84L13 83z"/>
<path style="fill:#4680e5; stroke:none;" d="M42 83L42 84L62 84L42 83z"/>
<path style="fill:#719ce8; stroke:none;" d="M62 83L62 111L63 111L62 83z"/>
<path style="fill:#5289e3; stroke:none;" d="M100 83L100 86L110 86L110 85L101 85L101 84L110 84L100 83z"/>
<path style="fill:#000000; stroke:none;" d="M101 84L101 85L110 85L101 84z"/>
<path style="fill:#2d6fdd; stroke:none;" d="M183 84L183 85L187 85L183 84z"/>
<path style="fill:#709be8; stroke:none;" d="M157 85L157 96C164.995 95.8061 164.999 92.0898 165 85L157 85z"/>
<path style="fill:#759ce7; stroke:none;" d="M175 85L174 119L187 118L186 121L194 122L194 121L188 121L188 116L175 117C176.144 107.948 178.589 93.5538 175 85z"/>
<path style="fill:#6896e6; stroke:none;" d="M182 85L182 91L188 91L188 85L182 85z"/>
<path style="fill:#2366da; stroke:none;" d="M193 85L193 110L194 110L193 85z"/>
<path style="fill:#7aa3eb; stroke:none;" d="M194 85L194 121L195 121C195.78 111.114 197.867 94.215 194 85z"/>
<path style="fill:#77a0ea; stroke:none;" d="M221 85L221 86L224 86L224 90L213 90L213 102L214 102L214 92C220.572 92 225.74 92.9056 226 85L221 85z"/>
<path style="fill:#000000; stroke:none;" d="M158 86L158 94L163 94L163 86L158 86M183 86L183 90L187 90L187 86L183 86z"/>
<path style="fill:#2368dc; stroke:none;" d="M68 87L69 97L70 97L68 87z"/>
<path style="fill:#7ba4ea; stroke:none;" d="M20 88L20 109L34 109L34 88L20 88z"/>
<path style="fill:#729dea; stroke:none;" d="M41 88L41 109L55 109L55 88L41 88z"/>
<path style="fill:#719ae9; stroke:none;" d="M68 88L68 97L69 97L68 88z"/>
<path style="fill:#000000; stroke:none;" d="M124 88L124 89L131 89L124 88z"/>
<path style="fill:#256adc; stroke:none;" d="M19 89L19 109L20 109L19 89z"/>
<path style="fill:#000000; stroke:none;" d="M32 89L21 90L21 108L33 108L32 89M101 89L101 90L110 91L101 89z"/>
<path style="fill:#729ce7; stroke:none;" d="M140 89L140 90L147 90L144 95L148 101L145 96C148.716 95.2037 148 92.3627 148 89L140 89z"/>
<path style="fill:#000000; stroke:none;" d="M42 90L42 108L54 108L54 90L42 90z"/>
<path style="fill:#f8ffff; stroke:none;" d="M101 90L101 91L109 91L101 90z"/>
<path style="fill:#6e98e6; stroke:none;" d="M77 94L77 95L91 95L77 94z"/>
<path style="fill:#6391e6; stroke:none;" d="M101 95L101 96L110 97L101 95z"/>
<path style="fill:#ffffff; stroke:none;" d="M198 95L199 99L201 99L202 95L198 95z"/>
<path style="fill:#00ffff; stroke:none;" d="M92 96L93 97L92 96z"/>
<path style="fill:#6a95ea; stroke:none;" d="M182 96L182 101L188 101L188 96L187 96L187 100L183 100L182 96z"/>
<path style="fill:#000000; stroke:none;" d="M183 96L183 100L187 100L187 96L183 96z"/>
<path style="fill:#6897e3; stroke:none;" d="M69 97L72 100L69 97z"/>
<path style="fill:#5385e3; stroke:none;" d="M92.3333 97.6667L92.6667 98.3333L92.3333 97.6667z"/>
<path style="fill:#7da5eb; stroke:none;" d="M135.667 97.3333L136.333 97.6667L135.667 97.3333z"/>
<path style="fill:#6693e6; stroke:none;" d="M89.3333 98.6667L89.6667 99.3333L89.3333 98.6667z"/>
<path style="fill:#457fe1; stroke:none;" d="M105 98L104 101L114 101L114 100L105 98z"/>
<path style="fill:#e7edf9; stroke:none;" d="M132 102L140 102C137.448 97.852 134.552 97.852 132 102z"/>
<path style="fill:#2b6ddc; stroke:none;" d="M122 100L122 101L131 101L122 100z"/>
<path style="fill:#6a97e6; stroke:none;" d="M133 100C119.641 102.482 122 108.611 122 121L123 121L123 103L171 103L171 116L172 116L171 99C161.937 100.51 152.075 101 143 101C139.419 101 131.961 104.155 133 100z"/>
<path style="fill:#6392e8; stroke:none;" d="M72 100L72 101L89 101L72 100z"/>
<path style="fill:#6695e6; stroke:none;" d="M92 100L92 101L99 101L92 100z"/>
<path style="fill:#2b6cdc; stroke:none;" d="M139 100L139 101L147 101L139 100z"/>
<path style="fill:#2d6ddc; stroke:none;" d="M150 100L150 101L168 101L150 100z"/>
<path style="fill:#4d82e1; stroke:none;" d="M66 102L66 108L88 109C84.2904 104.755 72.4061 107 67 107L67 103L117 103L117 107L96 108L96 109C102.321 108.571 113.791 106.722 116 114L117 114L116 108L118 102L66 102z"/>
<path style="fill:#77a1e8; stroke:none;" d="M196 102L196 108L203 108L198 119L199 119L204 107L197 107L196 102z"/>
<path style="fill:#3875df; stroke:none;" d="M197 102L197 103L206 103L197 102z"/>
<path style="fill:#3e7ae0; stroke:none;" d="M213 102L213 103L224 103L213 102z"/>
<path style="fill:#739ee9; stroke:none;" d="M224 102L224 107L211 108C213.323 116.494 215.61 121.967 225 122L223 115L222 115L223 120C216.616 119.507 215.702 115.068 213 110L220 111L219 108L226 108L226 102L224 102z"/>
<path style="fill:#0046d2; stroke:none;" d="M67 103L67 107L89 107L89 110L69 110L69 114L89 114C90.1456 123.953 109.295 120 117 120L117 117L96 117C100.846 112.051 109.649 114.311 116 115L116 110L96 110C100.872 105.025 110.455 107 117 107L117 103L67 103z"/>
<path style="fill:#0044d2; stroke:none;" d="M123 103L123 120L157 120L169.397 117.682L171 103L123 103z"/>
<path style="fill:#6090e6; stroke:none;" d="M182 112C192.785 111.16 182.398 99.8941 182 112z"/>
<path style="fill:#266adb; stroke:none;" d="M88 107L69 109L69 110C72.4245 110 89.784 111.732 88 107z"/>
<path style="fill:#6b99e9; stroke:none;" d="M131 107L131 110L163 110L163 107L131 107z"/>
<path style="fill:#000000; stroke:none;" d="M183 107L183 111L187 107L183 107M85.6667 108.333L86.3333 108.667L85.6667 108.333M98 108L99 109L98 108M132 108L132 109L162 109L132 108z"/>
<path style="fill:#618feb; stroke:none;" d="M68 109L68 115L88 115L88 114L69 114L68 109z"/>
<path style="fill:#246adb; stroke:none;" d="M96 109L96 110L115 110L96 109z"/>
<path style="fill:#79a3e9; stroke:none;" d="M210.333 110.667L210.667 111.333L210.333 110.667z"/>
<path style="fill:#0042d2; stroke:none;" d="M213 110C215.207 115.689 216.325 119.778 223 120C221.891 113.785 219.539 110.214 213 110z"/>
<path style="fill:#4e83e3; stroke:none;" d="M220.333 111.667L220.667 112.333L220.333 111.667z"/>
<path style="fill:#7ba1e7; stroke:none;" d="M209.333 112.667L209.667 113.333L209.333 112.667z"/>
<path style="fill:#6694e6; stroke:none;" d="M58.6667 113.333L59.3333 113.667L58.6667 113.333z"/>
<path style="fill:#427de5; stroke:none;" d="M130 116C138.34 112.804 154.988 111.544 163 116C162.515 112.139 158.362 113.001 155 113C148.919 112.998 133.194 110.197 130 116z"/>
<path style="fill:#4d82e2; stroke:none;" d="M221.333 113.667L221.667 114.333L221.333 113.667z"/>
<path style="fill:#6a98e9; stroke:none;" d="M33 114L33 122L42 122L42 114L41 114L41 120L34 120L33 114z"/>
<path style="fill:#1c62db; stroke:none;" d="M88 114C82.0551 118.504 68.541 111.766 67 121L117 121L117 120C107.164 120 93.5109 123.379 88 114z"/>
<path style="fill:#000000; stroke:none;" d="M132 114L132 115L162 115L132 114z"/>
<path style="fill:#729be7; stroke:none;" d="M208 114L206 120L207 120L208 114z"/>
<path style="fill:#3170de; stroke:none;" d="M96 115C100.061 119.827 111.183 117 117 117L117 116L96 115z"/>
<path style="fill:#f1f5f8; stroke:none;" d="M97 115L97 116L100 116L97 115z"/>
<path style="fill:#77a2e8; stroke:none;" d="M132 115L132 116L162 116L132 115z"/>
<path style="fill:#6e97e2; stroke:none;" d="M66 116L66 122L118 122L118 116L117 116L117 121L67 121L68 116L66 116z"/>
<path style="fill:#467fe2; stroke:none;" d="M193 116L193 120L188 120L188 121L194 121L193 116z"/>
<path style="fill:#0041d2; stroke:none;" d="M68 117L68 120L88 120C84.5989 114.754 73.6764 117 68 117z"/>
<path style="fill:#7da5ea; stroke:none;" d="M170 117C159.358 125.495 136.171 121 123 121L123 122L159 122C162.962 121.993 170.124 122.396 170 117z"/>
<path style="fill:#7ca4e8; stroke:none;" d="M197 119C197.854 122.987 201.489 122 205 122L205 121L197 119z"/>
<path style="fill:#4780e2; stroke:none;" d="M198 119L206 122L198 119z"/>
<path style="fill:#467ee2; stroke:none;" d="M123 120L123 121L166 121C154.774 116.29 135.219 120 123 120z"/>
<path style="fill:#e6ffff; stroke:none;" d="M52 126L53 127L52 126z"/>
<path style="fill:#6d9ae7; stroke:none;" d="M21 127L29 147L30 147L22 129C28.1661 129 36.4034 127.306 41 132C42.582 124.476 25.585 127 21 127z"/>
<path style="fill:#65b2ff; stroke:none;" d="M47 130L62 130C60.1969 125.938 48.0287 125.199 47 130z"/>
<path style="fill:#00ffff; stroke:none;" d="M51.6667 127.333L52.3333 127.667L51.6667 127.333z"/>
<path style="fill:#68d9fc; stroke:none;" d="M67 130L77 127C73.2071 127.303 67.9726 125.461 67 130z"/>
<path style="fill:#0041cb; stroke:none;" d="M22 129C39.2384 179.626 104.412 203.231 150 174.05C159.496 167.972 170.27 160.613 175 150C166.105 154.504 158.827 163.497 149.961 168.651C129.965 180.276 100.383 179.937 80 169.73C70.2094 164.827 59.7808 157.713 53.0903 149.039C49.2732 144.091 44.9832 132.806 39.6566 129.938C35.0902 127.48 27.0688 129 22 129z"/>
<path style="fill:#0075ff; stroke:none;" d="M48 129C61.1459 170.528 117.69 179.184 151 159C145.742 158.12 138.42 162.46 133 163.551C121.926 165.779 110.711 165.594 100 161.782C87.3014 157.263 78.5425 150.397 69.1744 140.83C66.2313 137.825 64.5706 131.502 60.7724 129.742C57.1904 128.083 51.8605 129 48 129z"/>
<path style="fill:#00beff; stroke:none;" d="M68 129C78.2533 150.674 102.745 162.317 126 158C117.43 154.404 107.891 156.287 99.1736 151.16C87.6066 144.357 81.046 129.001 68 129z"/>
<path style="fill:#76d8fa; stroke:none;" d="M68.3333 130.667L68.6667 131.333L68.3333 130.667z"/>
<path style="fill:#71b8ff; stroke:none;" d="M48.3333 131.667L48.6667 132.333L48.3333 131.667z"/>
<path style="fill:#d2f0ff; stroke:none;" d="M63.6667 131.333L64.3333 131.667L63.6667 131.333z"/>
<path style="fill:#769fe7; stroke:none;" d="M182 133L182 134L186 133L186 138L187 138L187 131L182 133z"/>
<path style="fill:#67d6fc; stroke:none;" d="M69 132C70.8401 137.763 74.4867 142.422 80 145L69 132z"/>
<path style="fill:#64affc; stroke:none;" d="M49 133L51 138L52 138L49 133z"/>
<path style="fill:#5bd7fd; stroke:none;" d="M79 133L83 138L79 133z"/>
<path style="fill:#0044d2; stroke:none;" d="M184 133L172 136L175 150L189 147L184 133z"/>
<path style="fill:#3474dd; stroke:none;" d="M185 133L186 142L187 142L185 133z"/>
<path style="fill:#679aea; stroke:none;" d="M43 134L45 137L43 134z"/>
<path style="fill:#4a9deb; stroke:none;" d="M64 134L67 138L64 134z"/>
<path style="fill:#79a3e8; stroke:none;" d="M171 138L172 138L182 135C178.859 133.71 171.828 134.134 171 138z"/>
<path style="fill:#5555ff; stroke:none;" d="M170.333 135.667L170.667 136.333L170.333 135.667z"/>
<path style="fill:#6195e8; stroke:none;" d="M45.3333 137.667L45.6667 138.333L45.3333 137.667z"/>
<path style="fill:#6db5f8; stroke:none;" d="M52 138L54 141L52 138z"/>
<path style="fill:#6abafe; stroke:none;" d="M67 138L71 143L67 138z"/>
<path style="fill:#4ad3ff; stroke:none;" d="M83 138L90 145L83 138z"/>
<path style="fill:#6197ee; stroke:none;" d="M46 139L48 142L46 139z"/>
<path style="fill:#749fe7; stroke:none;" d="M173.333 139.667L173.667 140.333L173.333 139.667z"/>
<path style="fill:#00ffff; stroke:none;" d="M25 140L26 141L25 140z"/>
<path style="fill:#6ea8e9; stroke:none;" d="M54 141L57 145L54 141z"/>
<path style="fill:#79a2e7; stroke:none;" d="M174.333 141.667L174.667 142.333L174.333 141.667z"/>
<path style="fill:#5a8fe4; stroke:none;" d="M48 142L50 145L48 142z"/>
<path style="fill:#79a2e8; stroke:none;" d="M174 144L174 150L175 150L174 144z"/>
<path style="fill:#70b7fe; stroke:none;" d="M153 145C154.052 153.965 149.898 156.711 142 160L142 161L151 158L150 160L151 160L163 157L163 156L154 156L157 146L153 145z"/>
<path style="fill:#7bb7f8; stroke:none;" d="M164 145L163 158L171 153L165 157L164 145z"/>
<path style="fill:#6a97e7; stroke:none;" d="M189.333 145.667L189.667 146.333L189.333 145.667z"/>
<path style="fill:#6292e3; stroke:none;" d="M51 146L55 151L51 146z"/>
<path style="fill:#555555; stroke:none;" d="M57.3333 146.667L57.6667 147.333L57.3333 146.667z"/>
<path style="fill:#66ccff; stroke:none;" d="M58 146L62 150L58 146z"/>
<path style="fill:#5dd1ff; stroke:none;" d="M91.6667 146.333L92.3333 146.667L91.6667 146.333z"/>
<path style="fill:#0073ff; stroke:none;" d="M155 146L154 156L164 157L165 146L155 146z"/>
<path style="fill:#6eb7ff; stroke:none;" d="M157.667 146.333L158.333 146.667L157.667 146.333z"/>
<path style="fill:#6eb6ff; stroke:none;" d="M160 146L160 147L163 147L160 146z"/>
<path style="fill:#588ce3; stroke:none;" d="M181 146L181 147L185 147L181 146z"/>
<path style="fill:#717171; stroke:none;" d="M215 146L216 147L215 146z"/>
<path style="fill:#719ce3; stroke:none;" d="M178 149L181 147L178 149z"/>
<path style="fill:#55aaff; stroke:none;" d="M31.3333 148.667L31.6667 149.333L31.3333 148.667z"/>
<path style="fill:#63d5ff; stroke:none;" d="M83 148L93 154L93 153L83 148z"/>
<path style="fill:#66ccff; stroke:none;" d="M94.6667 148.333L95.3333 148.667L94.6667 148.333z"/>
<path style="fill:#74dcff; stroke:none;" d="M135 148C128.891 163.385 107.961 151.948 97 150L97 151L139 158L134 155L137 148L135 148z"/>
<path style="fill:#00bcff; stroke:none;" d="M136 149L134 155L140 158L142 151L136 149z"/>
<path style="fill:#76a1e7; stroke:none;" d="M175 152L178 149L175 152z"/>
<path style="fill:#64b8ff; stroke:none;" d="M78 150L81 152L78 150z"/>
<path style="fill:#74dcff; stroke:none;" d="M138 150L138 151L142 153C143.095 150.095 140.45 150.12 138 150z"/>
<path style="fill:#6996df; stroke:none;" d="M33 151C35.3331 157.022 40.1455 162.27 46 165L33 151z"/>
<path style="fill:#2e6fdb; stroke:none;" d="M55 151L60 157L55 151z"/>
<path style="fill:#70b8ff; stroke:none;" d="M81 152L96 160L96 159L81 152z"/>
<path style="fill:#78a1e9; stroke:none;" d="M174 152L175 153L174 152z"/>
<path style="fill:#ffffff; stroke:none;" d="M219 152L220 153L219 152z"/>
<path style="fill:#62affd; stroke:none;" d="M65 153L70 157L65 153z"/>
<path style="fill:#759fe6; stroke:none;" d="M173 153L171 157L173 153z"/>
<path style="fill:#666633; stroke:none;" d="M30 154L31 155L30 154z"/>
<path style="fill:#6ad7ff; stroke:none;" d="M93 154L93 155L101 157L101 156L93 154z"/>
<path style="fill:#72d6ff; stroke:none;" d="M140 154L139 159L140 154z"/>
<path style="fill:#719ae7; stroke:none;" d="M60 156L65 160L60 156z"/>
<path style="fill:#3ed2ff; stroke:none;" d="M123 158L123 159L132 157L123 158z"/>
<path style="fill:#60affe; stroke:none;" d="M70 157L73 159L70 157z"/>
<path style="fill:#7aa4e9; stroke:none;" d="M170 157L171 158L170 157z"/>
<path style="fill:#ffffff; stroke:none;" d="M31 158L30 160L31 158z"/>
<path style="fill:#71d8ff; stroke:none;" d="M105 158L105 159L109 159L105 158z"/>
<path style="fill:#7ba6eb; stroke:none;" d="M169 158L170 159L169 158z"/>
<path style="fill:#808080; stroke:none;" d="M31 159L32 160L31 159z"/>
<path style="fill:#7adaff; stroke:none;" d="M111 159L111 160L122 160L111 159z"/>
<path style="fill:#79a6eb; stroke:none;" d="M168 159L169 160L168 159z"/>
<path style="fill:#8eaaaa; stroke:none;" d="M30 160L31 161L30 160z"/>
<path style="fill:#74a2e8; stroke:none;" d="M65 160L68 162L65 160z"/>
<path style="fill:#73bfff; stroke:none;" d="M96 160L96 161L99 161L96 160z"/>
<path style="fill:#7abdff; stroke:none;" d="M148.667 160.333L149.333 160.667L148.667 160.333z"/>
<path style="fill:#78a5eb; stroke:none;" d="M167 160L168 161L167 160z"/>
<path style="fill:#73bfff; stroke:none;" d="M99.6667 161.333L100.333 161.667L99.6667 161.333z"/>
<path style="fill:#5cb0ff; stroke:none;" d="M140.667 161.333L141.333 161.667L140.667 161.333z"/>
<path style="fill:#71aaff; stroke:none;" d="M145 163L148 161L145 163z"/>
<path style="fill:#79a5ea; stroke:none;" d="M166 161L167 162L166 161z"/>
<path style="fill:#63baff; stroke:none;" d="M101 162L101 163L104 163L101 162z"/>
<path style="fill:#68b6ff; stroke:none;" d="M136.667 162.333L137.333 162.667L136.667 162.333z"/>
<path style="fill:#79a3e9; stroke:none;" d="M165 162L166 163L165 162z"/>
<path style="fill:#71a2eb; stroke:none;" d="M69.6667 163.333L70.3333 163.667L69.6667 163.333z"/>
<path style="fill:#5bb3ff; stroke:none;" d="M105 163L105 164L109 164L105 163z"/>
<path style="fill:#70b8ff; stroke:none;" d="M131 163L131 164L134 164L131 163z"/>
<path style="fill:#70b9fe; stroke:none;" d="M83 164L83 165C103.261 174.433 124.797 171.836 145 164L115 169.715L83 164z"/>
<path style="fill:#7ba4e8; stroke:none;" d="M164 163L165 164L164 163z"/>
<path style="fill:#7dc3ff; stroke:none;" d="M110 164L110 165L128 165L110 164z"/>
<path style="fill:#7aa2e8; stroke:none;" d="M163 164L164 165L163 164z"/>
<path style="fill:#709ee8; stroke:none;" d="M72.6667 165.333L73.3333 165.667L72.6667 165.333z"/>
<path style="fill:#7aa3e9; stroke:none;" d="M162 165L163 166L162 165z"/>
<path style="fill:#749ddc; stroke:none;" d="M74 166L74 167C97.5852 180.763 130.35 180.751 154 167L154 166C139.335 170.223 126.828 176.653 111 175.961C97.5351 175.372 86.5831 169.624 74 166z"/>
<path style="fill:#749be3; stroke:none;" d="M158 169L162 166L158 169z"/>
<path style="fill:#ffffff; stroke:none;" d="M40 167L39 170L42 168L40 167z"/>
<path style="fill:#6997e5; stroke:none;" d="M48 167L56 173L48 167z"/>
<path style="fill:#ffffff; stroke:none;" d="M178.667 168.333L179.333 168.667L178.667 168.333z"/>
<path style="fill:#6c93e2; stroke:none;" d="M154 172L158 169L154 172z"/>
<path style="fill:#ffffff; stroke:none;" d="M37.6667 171.333L38.3333 171.667L37.6667 171.333z"/>
<path style="fill:#709ce4; stroke:none;" d="M149 174L149 175L154 173L149 174z"/>
<path style="fill:#5589e0; stroke:none;" d="M56.6667 173.333L57.3333 173.667L56.6667 173.333z"/>
<path style="fill:#00ffff; stroke:none;" d="M133 173L134 174L133 173z"/>
<path style="fill:#e3e3e3; stroke:none;" d="M174.667 173.333L175.333 173.667L174.667 173.333z"/>
<path style="fill:#9db9ea; stroke:none;" d="M58 175L58 176L61 176L58 175z"/>
<path style="fill:#7193d2; stroke:none;" d="M146 177L149 175L146 177z"/>
<path style="fill:#717171; stroke:none;" d="M28 176L29 177L28 176z"/>
<path style="fill:#ffffff; stroke:none;" d="M39 176L40 177L39 176z"/>
<path style="fill:#f0f5fa; stroke:none;" d="M59.6667 176.333L60.3333 176.667L59.6667 176.333z"/>
<path style="fill:#ffffff; stroke:none;" d="M31 177L31 178L38 178L38 177L31 177z"/>
<path style="fill:#4e83dc; stroke:none;" d="M63.6667 177.333L64.3333 177.667L63.6667 177.333z"/>
<path style="fill:#6a80bf; stroke:none;" d="M144.667 177.333L145.333 177.667L144.667 177.333z"/>
<path style="fill:#ffffff; stroke:none;" d="M54 178L55 179L54 178z"/>
<path style="fill:#5687dc; stroke:none;" d="M65.6667 178.333L66.3333 178.667L65.6667 178.333z"/>
<path style="fill:#5b8adc; stroke:none;" d="M67.6667 179.333L68.3333 179.667L67.6667 179.333z"/>
<path style="fill:#6695dd; stroke:none;" d="M139.667 179.333L140.333 179.667L139.667 179.333z"/>
<path style="fill:#ffffff; stroke:none;" d="M59 180L65 187L66 183L59 180z"/>
<path style="fill:#6694df; stroke:none;" d="M69 180L69 181L95 187L95 186L69 180z"/>
<path style="fill:#6b94e1; stroke:none;" d="M137.667 180.333L138.333 180.667L137.667 180.333z"/>
<path style="fill:#6996df; stroke:none;" d="M99 187L99 188C112.361 188 124.287 186.135 137 182L123 184.335L99 187z"/>
<path style="fill:#ffffff; stroke:none;" d="M35 184L36 185L35 184M59 184L60 185L59 184z"/>
<path style="fill:#bfcfeb; stroke:none;" d="M85 188L89 187L85 188z"/>
<path style="fill:#437ad3; stroke:none;" d="M95 186L95 187L111 187L95 186z"/>
<path style="fill:#e0e9f2; stroke:none;" d="M123.667 186.333L124.333 186.667L123.667 186.333z"/>
<path style="fill:#ffffff; stroke:none;" d="M137.667 187.333L138.333 187.667L137.667 187.333z"/>
<path style="fill:#404040; stroke:none;" d="M48.3333 188.667L48.6667 189.333L48.3333 188.667z"/>
<path style="fill:#ffffff; stroke:none;" d="M63 188L64 189L63 188M75 188L76 189L75 188z"/>
<path style="fill:#808000; stroke:none;" d="M122 189L123 190L122 189z"/>
<path style="fill:#ffffff; stroke:none;" d="M135.333 189.667L135.667 190.333L135.333 189.667z"/>
<path style="fill:#929292; stroke:none;" d="M47 191L48 192L47 191z"/>
<path style="fill:#808080; stroke:none;" d="M30 192L29 194L30 192z"/>
<path style="fill:#ffffff; stroke:none;" d="M30 194L33 192L30 194M46.6667 192.333L47.3333 192.667L46.6667 192.333z"/>
<path style="fill:#999999; stroke:none;" d="M46 193L47 194L46 193z"/>
<path style="fill:#ffffff; stroke:none;" d="M26 194L26 195L30 195L26 194z"/>
<path style="fill:#898989; stroke:none;" d="M35 194L36 195L35 194z"/>
<path style="fill:#808080; stroke:none;" d="M44 194L46 196L46 194L44 194z"/>
<path style="fill:#777777; stroke:none;" d="M37 195L38 196L37 195z"/>
<path style="fill:#404040; stroke:none;" d="M42.6667 195.333L43.3333 195.667L42.6667 195.333z"/>
</svg>
